<svg xmlns="http://www.w3.org/2000/svg" viewBox="-164 -1069 3762 1590">
  <g transform="scale(1,-1)" fill="#FFFFFF">
    <path transform="translate(0,0)" d="M63 -50V240L251 287V-50Q251 -73 267.5 -89.5Q284 -106 307 -106H407Q430 -106 446.0 -89.5Q462 -73 462 -50V440L651 487V-50Q651 -116 618.0 -172.0Q585 -228 529.0 -261.0Q473 -294 407 -294H307Q241 -294 185.0 -261.0Q129 -228 96.0 -172.0Q63 -116 63 -50ZM214 531H358V390H214Z"/>
    <path transform="translate(678,0)" d="M63 689 251 737V0H63Z"/>
    <path transform="translate(958,0)" d="M60 189H263V244Q263 267 246.5 283.0Q230 299 207 299H63V488H207Q273 488 329.0 455.0Q385 422 417.5 366.0Q450 310 450 244V0H60Z"/>
    <path transform="translate(1436,0)" d="M-35 -120 67 -51V438L255 486V244Q255 221 271.5 205.0Q288 189 311 189L344 94L311 0Q285 0 255 20V-151L68 -276Z"/>
    <path transform="translate(1747,0)" d="M-34 94 0 189H733Q756 189 772.0 205.0Q788 221 788 244Q788 267 772.0 283.0Q756 299 733 299H49V488L492 736L586 595L395 488H733Q799 488 855.0 455.0Q911 422 944.0 366.0Q977 310 977 244Q977 178 944.0 122.0Q911 66 855.0 33.0Q799 0 733 0H0ZM213 724 425 842 459 780 248 661Z"/>
    <path transform="translate(2751,0)" d="M-35 -120 67 -51V438L255 486V244Q255 221 271.5 205.0Q288 189 311 189L344 94L311 0Q285 0 255 20V-151L68 -276Z"/>
    <path transform="translate(3062,0)" d="M-34 94 0 189H65Q88 189 104.0 205.0Q120 221 120 244V440L309 486V244Q309 178 276.0 122.0Q243 66 187.0 33.0Q131 0 65 0H0ZM84 -100H228V-241H84Z"/>
  </g>
</svg>